<svg width="439.68" height="57.921" viewBox="0 0 439.68 57.921" xmlns="http://www.w3.org/2000/svg">
    <g id="svgGroup" stroke-linecap="round" fill-rule="evenodd" font-size="9pt" stroke="#f05011" stroke-width="0.25mm" fill="#f05011" style="stroke:#f05011;stroke-width:0.25mm;fill:#f05011">
        <path fill="#f05011" d="M 0 53.28 L 3.68 47.44 A 13.487 13.487 0 0 0 6.936 49.933 A 15.544 15.544 0 0 0 7.52 50.24 A 10.491 10.491 0 0 0 10.62 51.248 A 9.553 9.553 0 0 0 12.08 51.36 A 8.593 8.593 0 0 0 14.886 50.922 A 7.149 7.149 0 0 0 18.16 48.6 Q 20.4 45.84 20.4 39.28 L 20.4 0.96 L 28 0.96 L 28 38.48 A 37.877 37.877 0 0 1 27.658 43.759 Q 26.793 49.89 23.735 53.221 A 11.632 11.632 0 0 1 23.68 53.28 Q 19.36 57.92 12.32 57.92 A 18.754 18.754 0 0 1 5.858 56.814 A 17.924 17.924 0 0 1 5.4 56.64 A 18.262 18.262 0 0 1 2.262 55.055 A 14.547 14.547 0 0 1 0 53.28 Z" id="0" vector-effect="non-scaling-stroke"/>
        <path d="M 36.8 52.24 L 40.64 45.84 Q 43.52 48.24 47.12 49.76 A 18.679 18.679 0 0 0 51.416 50.968 A 25.694 25.694 0 0 0 55.52 51.28 A 22.385 22.385 0 0 0 59.158 51.003 Q 61.096 50.684 62.665 49.995 A 10.96 10.96 0 0 0 64.64 48.88 A 8.224 8.224 0 0 0 66.877 46.556 Q 67.93 44.871 67.996 42.693 A 9.693 9.693 0 0 0 68 42.4 A 9.552 9.552 0 0 0 67.73 40.086 A 7.853 7.853 0 0 0 67.04 38.28 A 6.478 6.478 0 0 0 66.08 36.955 Q 65.056 35.842 63.32 34.76 A 25.684 25.684 0 0 0 61.341 33.658 Q 58.885 32.415 55.2 31.04 Q 49.44 28.8 46 26.52 Q 42.815 24.41 41.31 21.75 A 10.642 10.642 0 0 1 41.08 21.32 A 13.333 13.333 0 0 1 39.863 17.583 A 18.342 18.342 0 0 1 39.6 14.4 Q 39.6 10.4 41.8 7.16 Q 44 3.92 48.28 1.96 Q 52.158 0.185 57.514 0.018 A 36.182 36.182 0 0 1 58.64 0 Q 63.6 0 67.56 1 Q 71.52 2 75.28 3.84 L 72.48 10.32 A 25.197 25.197 0 0 0 69.179 8.705 A 33.349 33.349 0 0 0 66.12 7.64 Q 62.48 6.56 58.48 6.56 A 21.75 21.75 0 0 0 55.256 6.784 Q 53.55 7.04 52.16 7.59 A 10.093 10.093 0 0 0 50.16 8.64 A 7.921 7.921 0 0 0 48.429 10.212 A 5.887 5.887 0 0 0 47.12 14 A 8.372 8.372 0 0 0 47.354 16.018 A 6.849 6.849 0 0 0 48 17.68 A 5.529 5.529 0 0 0 48.855 18.82 Q 49.754 19.763 51.273 20.678 A 18.802 18.802 0 0 0 51.48 20.8 A 26.402 26.402 0 0 0 53.253 21.738 Q 55.068 22.62 57.637 23.618 A 104.013 104.013 0 0 0 59.28 24.24 A 64.983 64.983 0 0 1 63.263 25.864 Q 65.209 26.738 66.81 27.645 A 28.403 28.403 0 0 1 69.16 29.12 Q 72.142 31.218 73.702 33.611 A 11.384 11.384 0 0 1 74.32 34.68 A 14.063 14.063 0 0 1 75.713 39.371 A 17.724 17.724 0 0 1 75.84 41.52 A 17.368 17.368 0 0 1 75.306 45.921 A 13.684 13.684 0 0 1 73.24 50.4 Q 70.64 54.08 66.04 56 Q 61.44 57.92 55.52 57.92 A 37.893 37.893 0 0 1 49.3 57.43 A 30.439 30.439 0 0 1 44.88 56.36 A 30.565 30.565 0 0 1 40.587 54.615 A 22.746 22.746 0 0 1 36.8 52.24 Z" id="1" vector-effect="non-scaling-stroke"/>
        <path d="M 104.167 57.314 A 29.208 29.208 0 0 0 110.24 57.92 A 30.68 30.68 0 0 0 114.369 57.651 A 24.059 24.059 0 0 0 121.36 55.64 Q 126.24 53.36 129.68 49.4 A 26.111 26.111 0 0 0 130.74 48.098 A 27.788 27.788 0 0 0 134.92 40.16 A 32.418 32.418 0 0 0 135.621 37.816 A 35.556 35.556 0 0 0 136.72 28.88 A 38.572 38.572 0 0 0 136.657 26.659 A 33.152 33.152 0 0 0 134.92 17.68 Q 133.12 12.48 129.68 8.48 Q 126.24 4.48 121.32 2.24 A 23.94 23.94 0 0 0 116.607 0.67 A 29.136 29.136 0 0 0 110.24 0 A 31.48 31.48 0 0 0 105.258 0.381 A 23.729 23.729 0 0 0 96.08 3.8 Q 90.16 7.6 87 14.12 A 30.391 30.391 0 0 0 84.732 20.611 A 36.945 36.945 0 0 0 83.84 28.88 Q 83.84 34.88 85.64 40.16 A 31.501 31.501 0 0 0 85.992 41.139 A 27.482 27.482 0 0 0 90.84 49.4 Q 94.24 53.36 99.12 55.64 A 23.313 23.313 0 0 0 104.167 57.314 Z M 110.24 51.36 A 21.213 21.213 0 0 0 114.998 50.853 A 15.453 15.453 0 0 0 120.56 48.4 A 17.976 17.976 0 0 0 126.42 41.304 A 21.801 21.801 0 0 0 126.84 40.36 A 27.286 27.286 0 0 0 128.698 33.217 A 34.803 34.803 0 0 0 128.96 28.88 Q 128.96 24.56 127.68 20.56 A 23.788 23.788 0 0 0 124.368 13.899 A 22.496 22.496 0 0 0 124 13.4 Q 121.6 10.24 118.12 8.4 Q 114.64 6.56 110.24 6.56 A 19.269 19.269 0 0 0 105.046 7.233 A 15.636 15.636 0 0 0 100.2 9.52 A 18.518 18.518 0 0 0 94.119 16.822 A 22.228 22.228 0 0 0 93.8 17.52 A 26.234 26.234 0 0 0 91.837 24.871 A 33.005 33.005 0 0 0 91.6 28.88 Q 91.6 33.2 92.84 37.24 Q 94.08 41.28 96.48 44.48 Q 98.88 47.68 102.36 49.52 Q 105.84 51.36 110.24 51.36 Z" id="2" vector-effect="non-scaling-stroke"/>
        <path d="M 155.12 56.96 L 147.92 56.96 L 147.92 0.96 L 158 0.96 L 182.72 47.52 L 182.72 0.96 L 189.92 0.96 L 189.92 56.96 L 180 56.96 L 155.12 10.72 L 155.12 56.96 Z" id="3" vector-effect="non-scaling-stroke"/>
        <path fill="#ffa11b" stroke="#ffa11b" d="M 235.92 56.96 L 228.32 56.96 L 228.32 0.96 L 235.92 0.96 L 235.92 24.88 L 263.52 24.88 L 263.52 0.96 L 271.12 0.96 L 271.12 56.96 L 263.52 56.96 L 263.52 31.44 L 235.92 31.44 L 235.92 56.96 Z" id="5" vector-effect="non-scaling-stroke"/>
        <path fill="#ffa11b" stroke="#ffa11b" d="M 295.329 56.849 A 21.771 21.771 0 0 0 302.24 57.92 A 24.581 24.581 0 0 0 304.06 57.854 A 20.206 20.206 0 0 0 312.84 55.2 Q 317.52 52.48 320.24 47.56 A 21.004 21.004 0 0 0 322.362 41.847 A 27.347 27.347 0 0 0 322.96 36 Q 322.96 29.36 320.2 24.52 Q 317.44 19.68 312.76 17.04 A 19.879 19.879 0 0 0 309.047 15.419 A 22.19 22.19 0 0 0 302.24 14.4 A 25.06 25.06 0 0 0 300.976 14.432 A 20.935 20.935 0 0 0 291.68 17.04 Q 286.96 19.68 284.24 24.56 Q 281.52 29.44 281.52 36.16 Q 281.52 42.56 284.2 47.48 Q 286.88 52.4 291.6 55.16 A 19.647 19.647 0 0 0 295.329 56.849 Z M 302.24 51.52 A 14.993 14.993 0 0 0 306.421 50.968 A 11.2 11.2 0 0 0 312.08 47.24 A 15.042 15.042 0 0 0 315.135 40.768 A 21.684 21.684 0 0 0 315.6 36.16 A 17.101 17.101 0 0 0 314.62 30.331 A 16.011 16.011 0 0 0 313.84 28.52 Q 312.08 25.04 309.08 22.92 Q 306.08 20.8 302.24 20.8 A 15.399 15.399 0 0 0 298.059 21.338 A 11.229 11.229 0 0 0 292.4 24.96 A 14.303 14.303 0 0 0 289.461 30.859 Q 288.934 32.985 288.885 35.48 A 26.295 26.295 0 0 0 288.88 36 Q 288.88 40.16 290.64 43.72 A 15.55 15.55 0 0 0 293.464 47.752 A 14.102 14.102 0 0 0 295.4 49.4 Q 298.4 51.52 302.24 51.52 Z" id="6" vector-effect="non-scaling-stroke"/>
        <path fill="#ffa11b" stroke="#ffa11b" d="M 339.76 56.96 L 332.56 56.96 L 332.56 15.36 L 339.52 15.36 L 339.52 22.32 Q 341.76 18.96 345.2 16.68 A 13.764 13.764 0 0 1 352.562 14.407 A 16.686 16.686 0 0 1 353.04 14.4 Q 357.713 14.4 360.788 16.531 A 10.502 10.502 0 0 1 361.16 16.8 A 12.601 12.601 0 0 1 365.518 22.952 A 15.322 15.322 0 0 1 365.6 23.2 Q 368.08 19.52 371.48 16.96 A 12.535 12.535 0 0 1 376.912 14.654 A 17.157 17.157 0 0 1 379.92 14.4 Q 385.46 14.4 388.69 17.241 A 10.395 10.395 0 0 1 390.04 18.68 Q 393.185 22.735 393.351 29.122 A 27.679 27.679 0 0 1 393.36 29.84 L 393.36 56.96 L 386.16 56.96 L 386.16 30.4 A 15.234 15.234 0 0 0 385.89 27.449 Q 385.542 25.685 384.743 24.289 A 8.785 8.785 0 0 0 384.16 23.4 A 6.379 6.379 0 0 0 379.509 20.764 A 8.542 8.542 0 0 0 378.64 20.72 Q 375.04 20.72 371.96 23.4 Q 368.88 26.08 366.56 29.68 L 366.56 56.96 L 359.36 56.96 L 359.36 30.4 A 15.234 15.234 0 0 0 359.09 27.449 Q 358.742 25.685 357.943 24.289 A 8.785 8.785 0 0 0 357.36 23.4 A 6.379 6.379 0 0 0 352.709 20.764 A 8.542 8.542 0 0 0 351.84 20.72 Q 348.32 20.72 345.2 23.32 Q 342.08 25.92 339.76 29.44 L 339.76 56.96 Z" id="7" vector-effect="non-scaling-stroke"/>
        <path fill="#ffa11b" stroke="#ffa11b" d="M 439.44 39.12 L 410.32 39.12 Q 410.991 44.561 413.953 47.78 A 11.984 11.984 0 0 0 414.4 48.24 A 11.315 11.315 0 0 0 420.5 51.289 A 16.017 16.017 0 0 0 423.28 51.52 Q 426.88 51.52 429.76 50.76 Q 432.64 50 435.28 48.8 L 436.96 54.96 A 32.616 32.616 0 0 1 433.492 56.261 A 41.49 41.49 0 0 1 430.48 57.08 A 31.131 31.131 0 0 1 426.407 57.736 A 41.62 41.62 0 0 1 422.4 57.92 Q 413.44 57.92 408.2 52.2 Q 402.96 46.48 402.96 36.16 A 28.287 28.287 0 0 1 403.626 29.903 A 23.072 23.072 0 0 1 405.32 25 A 19.713 19.713 0 0 1 409.333 19.335 A 18.31 18.31 0 0 1 411.92 17.24 A 16.839 16.839 0 0 1 420.127 14.463 A 20.964 20.964 0 0 1 421.76 14.4 A 22.843 22.843 0 0 1 426.136 14.797 Q 429.307 15.416 431.72 17 Q 435.68 19.6 437.68 24 A 22.548 22.548 0 0 1 439.621 31.891 A 26.748 26.748 0 0 1 439.68 33.68 Q 439.68 36.48 439.44 39.12 Z M 410.24 33.28 L 433.04 33.28 Q 433.04 28.865 431.437 25.926 A 9.938 9.938 0 0 0 430 23.92 A 9.991 9.991 0 0 0 424.431 20.9 A 14.716 14.716 0 0 0 421.6 20.64 A 10.864 10.864 0 0 0 417.511 21.388 A 10.019 10.019 0 0 0 413.92 23.88 A 12.132 12.132 0 0 0 411.568 27.632 Q 410.893 29.279 410.522 31.297 A 25.617 25.617 0 0 0 410.24 33.28 Z" id="8" vector-effect="non-scaling-stroke"/>
    </g>
</svg>
